<mxfile host="app.diagrams.net" agent="Mozilla/5.0 (Windows NT 10.0; Win64; x64) AppleWebKit/537.36 (KHTML, like Gecko) Chrome/128.0.0.0 Safari/537.36" version="24.7.12">
  <diagram id="C5RBs43oDa-KdzZeNtuy" name="Page-1">
    <mxGraphModel dx="1562" dy="845" grid="1" gridSize="10" guides="1" tooltips="1" connect="1" arrows="1" fold="1" page="1" pageScale="1" pageWidth="827" pageHeight="1169" math="0" shadow="0">
      <root>
        <mxCell id="WIyWlLk6GJQsqaUBKTNV-0" />
        <mxCell id="WIyWlLk6GJQsqaUBKTNV-1" parent="WIyWlLk6GJQsqaUBKTNV-0" />
        <mxCell id="GF9OS27kTet_1WbwtDLy-0" value="" style="shape=curlyBracket;whiteSpace=wrap;html=1;rounded=1;labelPosition=left;verticalLabelPosition=middle;align=right;verticalAlign=middle;size=0.5;strokeWidth=2;" vertex="1" parent="WIyWlLk6GJQsqaUBKTNV-1">
          <mxGeometry x="65" y="471.25" width="30" height="55" as="geometry" />
        </mxCell>
        <mxCell id="GF9OS27kTet_1WbwtDLy-1" value="&lt;font style=&quot;font-size: 20px;&quot;&gt;Submodel&lt;/font&gt;" style="text;html=1;align=center;verticalAlign=middle;resizable=0;points=[];autosize=1;strokeColor=none;fillColor=none;" vertex="1" parent="WIyWlLk6GJQsqaUBKTNV-1">
          <mxGeometry x="135" y="478.75" width="110" height="40" as="geometry" />
        </mxCell>
        <mxCell id="GF9OS27kTet_1WbwtDLy-2" value="" style="endArrow=classic;html=1;rounded=0;strokeWidth=3;" edge="1" parent="WIyWlLk6GJQsqaUBKTNV-1">
          <mxGeometry width="50" height="50" relative="1" as="geometry">
            <mxPoint x="50" y="426.25" as="sourcePoint" />
            <mxPoint x="100" y="426.25" as="targetPoint" />
          </mxGeometry>
        </mxCell>
        <mxCell id="GF9OS27kTet_1WbwtDLy-3" value="&lt;font style=&quot;font-size: 20px;&quot;&gt;Flow&amp;nbsp;&lt;/font&gt;&lt;div&gt;&lt;font style=&quot;font-size: 20px;&quot;&gt;information&lt;/font&gt;&lt;/div&gt;" style="text;html=1;align=center;verticalAlign=middle;resizable=0;points=[];autosize=1;strokeColor=none;fillColor=none;" vertex="1" parent="WIyWlLk6GJQsqaUBKTNV-1">
          <mxGeometry x="130" y="398.75" width="120" height="60" as="geometry" />
        </mxCell>
        <mxCell id="GF9OS27kTet_1WbwtDLy-4" value="&lt;font style=&quot;font-size: 20px;&quot;&gt;Decision&lt;/font&gt;" style="rhombus;whiteSpace=wrap;html=1;fontSize=20;strokeWidth=3;fillColor=#b1ddf0;strokeColor=#10739e;" vertex="1" parent="WIyWlLk6GJQsqaUBKTNV-1">
          <mxGeometry x="30" y="306.25" width="100" height="80" as="geometry" />
        </mxCell>
        <mxCell id="GF9OS27kTet_1WbwtDLy-5" value="&lt;span style=&quot;font-size: 20px;&quot;&gt;Agent&#39;s&amp;nbsp;&lt;/span&gt;&lt;div&gt;&lt;span style=&quot;font-size: 20px;&quot;&gt;Decision&lt;/span&gt;&lt;/div&gt;" style="text;html=1;align=center;verticalAlign=middle;resizable=0;points=[];autosize=1;strokeColor=none;fillColor=none;" vertex="1" parent="WIyWlLk6GJQsqaUBKTNV-1">
          <mxGeometry x="140" y="316.25" width="100" height="60" as="geometry" />
        </mxCell>
        <mxCell id="GF9OS27kTet_1WbwtDLy-6" value="Action" style="rounded=0;whiteSpace=wrap;html=1;fontSize=20;strokeWidth=3;" vertex="1" parent="WIyWlLk6GJQsqaUBKTNV-1">
          <mxGeometry x="40" y="232.5" width="80" height="50" as="geometry" />
        </mxCell>
        <mxCell id="GF9OS27kTet_1WbwtDLy-7" value="&lt;span style=&quot;font-size: 20px;&quot;&gt;Agent&#39;s&amp;nbsp;&lt;/span&gt;&lt;div&gt;&lt;span style=&quot;font-size: 20px;&quot;&gt;Action&lt;/span&gt;&lt;/div&gt;" style="text;html=1;align=center;verticalAlign=middle;resizable=0;points=[];autosize=1;strokeColor=none;fillColor=none;" vertex="1" parent="WIyWlLk6GJQsqaUBKTNV-1">
          <mxGeometry x="140" y="227.5" width="100" height="60" as="geometry" />
        </mxCell>
        <mxCell id="GF9OS27kTet_1WbwtDLy-8" value="&lt;span style=&quot;color: rgb(255, 255, 255); font-size: 22px;&quot;&gt;Agent&lt;/span&gt;" style="strokeWidth=3;html=1;shape=mxgraph.flowchart.terminator;whiteSpace=wrap;fillColor=#6d8764;strokeColor=#3A5431;fontColor=#ffffff;" vertex="1" parent="WIyWlLk6GJQsqaUBKTNV-1">
          <mxGeometry x="35" y="160" width="90" height="46.25" as="geometry" />
        </mxCell>
        <mxCell id="GF9OS27kTet_1WbwtDLy-9" value="&lt;span style=&quot;font-size: 20px;&quot;&gt;Agent&lt;/span&gt;" style="text;html=1;align=center;verticalAlign=middle;resizable=0;points=[];autosize=1;strokeColor=none;fillColor=none;" vertex="1" parent="WIyWlLk6GJQsqaUBKTNV-1">
          <mxGeometry x="150" y="166.25" width="80" height="40" as="geometry" />
        </mxCell>
        <mxCell id="GF9OS27kTet_1WbwtDLy-22" style="edgeStyle=orthogonalEdgeStyle;rounded=0;orthogonalLoop=1;jettySize=auto;html=1;entryX=0.5;entryY=0;entryDx=0;entryDy=0;" edge="1" parent="WIyWlLk6GJQsqaUBKTNV-1" source="GF9OS27kTet_1WbwtDLy-10" target="GF9OS27kTet_1WbwtDLy-16">
          <mxGeometry relative="1" as="geometry" />
        </mxCell>
        <mxCell id="GF9OS27kTet_1WbwtDLy-10" value="&lt;span style=&quot;color: rgb(255, 255, 255); font-size: 22px;&quot;&gt;Second-hand Store&lt;/span&gt;" style="strokeWidth=3;html=1;shape=mxgraph.flowchart.terminator;whiteSpace=wrap;fillColor=#6d8764;strokeColor=#3A5431;fontColor=#ffffff;" vertex="1" parent="WIyWlLk6GJQsqaUBKTNV-1">
          <mxGeometry x="659" y="80.88" width="170" height="66.25" as="geometry" />
        </mxCell>
        <mxCell id="GF9OS27kTet_1WbwtDLy-18" style="edgeStyle=orthogonalEdgeStyle;rounded=0;orthogonalLoop=1;jettySize=auto;html=1;" edge="1" parent="WIyWlLk6GJQsqaUBKTNV-1" source="GF9OS27kTet_1WbwtDLy-12" target="GF9OS27kTet_1WbwtDLy-15">
          <mxGeometry relative="1" as="geometry" />
        </mxCell>
        <mxCell id="GF9OS27kTet_1WbwtDLy-12" value="Renewing" style="rounded=0;whiteSpace=wrap;html=1;fontSize=20;strokeWidth=3;" vertex="1" parent="WIyWlLk6GJQsqaUBKTNV-1">
          <mxGeometry x="664" y="303.38" width="160" height="63.75" as="geometry" />
        </mxCell>
        <mxCell id="GF9OS27kTet_1WbwtDLy-13" value="" style="shape=curlyBracket;whiteSpace=wrap;html=1;rounded=1;labelPosition=left;verticalLabelPosition=middle;align=right;verticalAlign=middle;size=0.5;strokeWidth=2;rotation=0;" vertex="1" parent="WIyWlLk6GJQsqaUBKTNV-1">
          <mxGeometry x="644" y="302.13" width="17" height="65" as="geometry" />
        </mxCell>
        <mxCell id="GF9OS27kTet_1WbwtDLy-14" value="&lt;span style=&quot;font-size: 20px;&quot;&gt;Learning Curve&lt;/span&gt;&lt;div&gt;&lt;span style=&quot;font-size: 20px;&quot;&gt;&amp;nbsp;Function&lt;/span&gt;&lt;/div&gt;" style="text;html=1;align=center;verticalAlign=middle;resizable=0;points=[];autosize=1;strokeColor=none;fillColor=none;" vertex="1" parent="WIyWlLk6GJQsqaUBKTNV-1">
          <mxGeometry x="950" y="302.13" width="160" height="60" as="geometry" />
        </mxCell>
        <mxCell id="GF9OS27kTet_1WbwtDLy-21" style="edgeStyle=orthogonalEdgeStyle;rounded=0;orthogonalLoop=1;jettySize=auto;html=1;" edge="1" parent="WIyWlLk6GJQsqaUBKTNV-1" source="GF9OS27kTet_1WbwtDLy-15" target="GF9OS27kTet_1WbwtDLy-19">
          <mxGeometry relative="1" as="geometry" />
        </mxCell>
        <mxCell id="GF9OS27kTet_1WbwtDLy-15" value="&lt;font style=&quot;font-size: 18px;&quot;&gt;Second-hand&amp;nbsp;&lt;/font&gt;&lt;div style=&quot;font-size: 18px;&quot;&gt;&lt;font style=&quot;font-size: 18px;&quot;&gt;Market&lt;/font&gt;&lt;/div&gt;" style="shape=hexagon;perimeter=hexagonPerimeter2;whiteSpace=wrap;html=1;fixedSize=1;strokeWidth=3;" vertex="1" parent="WIyWlLk6GJQsqaUBKTNV-1">
          <mxGeometry x="661" y="408.38" width="166" height="80" as="geometry" />
        </mxCell>
        <mxCell id="GF9OS27kTet_1WbwtDLy-17" style="edgeStyle=orthogonalEdgeStyle;rounded=0;orthogonalLoop=1;jettySize=auto;html=1;" edge="1" parent="WIyWlLk6GJQsqaUBKTNV-1" source="GF9OS27kTet_1WbwtDLy-16" target="GF9OS27kTet_1WbwtDLy-12">
          <mxGeometry relative="1" as="geometry" />
        </mxCell>
        <mxCell id="GF9OS27kTet_1WbwtDLy-24" style="edgeStyle=orthogonalEdgeStyle;rounded=0;orthogonalLoop=1;jettySize=auto;html=1;exitX=1;exitY=0.5;exitDx=0;exitDy=0;entryX=1;entryY=0.5;entryDx=0;entryDy=0;" edge="1" parent="WIyWlLk6GJQsqaUBKTNV-1" source="GF9OS27kTet_1WbwtDLy-16" target="GF9OS27kTet_1WbwtDLy-23">
          <mxGeometry relative="1" as="geometry">
            <Array as="points">
              <mxPoint x="894" y="230.13" />
              <mxPoint x="894" y="572.13" />
            </Array>
          </mxGeometry>
        </mxCell>
        <mxCell id="GF9OS27kTet_1WbwtDLy-16" value="Repair&amp;amp;Sell?" style="rhombus;whiteSpace=wrap;html=1;fontSize=20;strokeWidth=3;fillColor=#b1ddf0;strokeColor=#10739e;" vertex="1" parent="WIyWlLk6GJQsqaUBKTNV-1">
          <mxGeometry x="644" y="189.63" width="200" height="80" as="geometry" />
        </mxCell>
        <mxCell id="GF9OS27kTet_1WbwtDLy-19" value="&lt;span style=&quot;color: rgb(255, 255, 255); font-size: 22px;&quot;&gt;Consumer&lt;/span&gt;" style="strokeWidth=3;html=1;shape=mxgraph.flowchart.terminator;whiteSpace=wrap;fillColor=#6d8764;strokeColor=#3A5431;fontColor=#ffffff;" vertex="1" parent="WIyWlLk6GJQsqaUBKTNV-1">
          <mxGeometry x="448" y="415.26" width="150" height="66.25" as="geometry" />
        </mxCell>
        <mxCell id="GF9OS27kTet_1WbwtDLy-20" style="edgeStyle=orthogonalEdgeStyle;rounded=0;orthogonalLoop=1;jettySize=auto;html=1;entryX=0;entryY=0.5;entryDx=0;entryDy=0;entryPerimeter=0;exitX=0.5;exitY=0;exitDx=0;exitDy=0;exitPerimeter=0;startArrow=none;startFill=0;" edge="1" parent="WIyWlLk6GJQsqaUBKTNV-1" source="GF9OS27kTet_1WbwtDLy-35" target="GF9OS27kTet_1WbwtDLy-10">
          <mxGeometry relative="1" as="geometry" />
        </mxCell>
        <mxCell id="GF9OS27kTet_1WbwtDLy-23" value="&lt;span style=&quot;font-size: 18px;&quot;&gt;EoL&lt;/span&gt;" style="shape=hexagon;perimeter=hexagonPerimeter2;whiteSpace=wrap;html=1;fixedSize=1;strokeWidth=3;" vertex="1" parent="WIyWlLk6GJQsqaUBKTNV-1">
          <mxGeometry x="661" y="531.63" width="166" height="80" as="geometry" />
        </mxCell>
        <mxCell id="GF9OS27kTet_1WbwtDLy-26" value="&lt;font style=&quot;font-size: 17px;&quot;&gt;No&lt;/font&gt;" style="text;html=1;align=center;verticalAlign=middle;resizable=0;points=[];autosize=1;strokeColor=none;fillColor=none;" vertex="1" parent="WIyWlLk6GJQsqaUBKTNV-1">
          <mxGeometry x="839" y="189.63" width="50" height="30" as="geometry" />
        </mxCell>
        <mxCell id="GF9OS27kTet_1WbwtDLy-27" value="&lt;font style=&quot;font-size: 17px;&quot;&gt;Yes&lt;/font&gt;" style="text;html=1;align=center;verticalAlign=middle;resizable=0;points=[];autosize=1;strokeColor=none;fillColor=none;" vertex="1" parent="WIyWlLk6GJQsqaUBKTNV-1">
          <mxGeometry x="744" y="263.38" width="50" height="30" as="geometry" />
        </mxCell>
        <mxCell id="GF9OS27kTet_1WbwtDLy-28" value="&lt;span style=&quot;font-size: 20px;&quot;&gt;recycle&lt;/span&gt;" style="text;html=1;align=center;verticalAlign=middle;resizable=0;points=[];autosize=1;strokeColor=none;fillColor=none;" vertex="1" parent="WIyWlLk6GJQsqaUBKTNV-1">
          <mxGeometry x="580" y="540" width="90" height="40" as="geometry" />
        </mxCell>
        <mxCell id="GF9OS27kTet_1WbwtDLy-29" value="&lt;span style=&quot;font-size: 20px;&quot;&gt;Sell&lt;/span&gt;" style="text;html=1;align=center;verticalAlign=middle;resizable=0;points=[];autosize=1;fillColor=none;" vertex="1" parent="WIyWlLk6GJQsqaUBKTNV-1">
          <mxGeometry x="604" y="418.75" width="60" height="40" as="geometry" />
        </mxCell>
        <mxCell id="GF9OS27kTet_1WbwtDLy-40" style="edgeStyle=orthogonalEdgeStyle;rounded=0;orthogonalLoop=1;jettySize=auto;html=1;entryX=0.5;entryY=0;entryDx=0;entryDy=0;" edge="1" parent="WIyWlLk6GJQsqaUBKTNV-1" source="GF9OS27kTet_1WbwtDLy-31" target="GF9OS27kTet_1WbwtDLy-39">
          <mxGeometry relative="1" as="geometry" />
        </mxCell>
        <mxCell id="GF9OS27kTet_1WbwtDLy-31" value="&lt;span style=&quot;color: rgb(255, 255, 255); font-size: 22px;&quot;&gt;Recycler&lt;/span&gt;" style="strokeWidth=3;html=1;shape=mxgraph.flowchart.terminator;whiteSpace=wrap;fillColor=#6d8764;strokeColor=#3A5431;fontColor=#ffffff;" vertex="1" parent="WIyWlLk6GJQsqaUBKTNV-1">
          <mxGeometry x="264" y="80.88" width="150" height="66.25" as="geometry" />
        </mxCell>
        <mxCell id="GF9OS27kTet_1WbwtDLy-36" value="" style="edgeStyle=orthogonalEdgeStyle;rounded=0;orthogonalLoop=1;jettySize=auto;html=1;entryX=0.5;entryY=1;entryDx=0;entryDy=0;exitX=0.5;exitY=0;exitDx=0;exitDy=0;exitPerimeter=0;startArrow=none;startFill=0;" edge="1" parent="WIyWlLk6GJQsqaUBKTNV-1" source="GF9OS27kTet_1WbwtDLy-19" target="GF9OS27kTet_1WbwtDLy-35">
          <mxGeometry relative="1" as="geometry">
            <mxPoint x="525" y="320.25" as="sourcePoint" />
            <mxPoint x="685" y="133.25" as="targetPoint" />
          </mxGeometry>
        </mxCell>
        <mxCell id="GF9OS27kTet_1WbwtDLy-35" value="&lt;span style=&quot;font-size: 18px;&quot;&gt;Used Smartphone EoL Pathway&lt;/span&gt;" style="shape=hexagon;perimeter=hexagonPerimeter2;whiteSpace=wrap;html=1;fixedSize=1;strokeWidth=3;" vertex="1" parent="WIyWlLk6GJQsqaUBKTNV-1">
          <mxGeometry x="440" y="282.5" width="166" height="80" as="geometry" />
        </mxCell>
        <mxCell id="GF9OS27kTet_1WbwtDLy-37" value="&lt;span style=&quot;color: rgb(0, 0, 0); font-family: Helvetica; font-size: 20px; font-style: normal; font-variant-ligatures: normal; font-variant-caps: normal; font-weight: 400; letter-spacing: normal; orphans: 2; text-align: center; text-indent: 0px; text-transform: none; widows: 2; word-spacing: 0px; -webkit-text-stroke-width: 0px; white-space: normal; background-color: rgb(251, 251, 251); text-decoration-thickness: initial; text-decoration-style: initial; text-decoration-color: initial; display: inline !important; float: none;&quot;&gt;Sell&lt;/span&gt;" style="text;whiteSpace=wrap;html=1;" vertex="1" parent="WIyWlLk6GJQsqaUBKTNV-1">
          <mxGeometry x="532" y="241.07" width="66" height="32.87" as="geometry" />
        </mxCell>
        <mxCell id="GF9OS27kTet_1WbwtDLy-41" style="edgeStyle=orthogonalEdgeStyle;rounded=0;orthogonalLoop=1;jettySize=auto;html=1;exitX=1;exitY=0.5;exitDx=0;exitDy=0;" edge="1" parent="WIyWlLk6GJQsqaUBKTNV-1" source="GF9OS27kTet_1WbwtDLy-39" target="GF9OS27kTet_1WbwtDLy-10">
          <mxGeometry relative="1" as="geometry">
            <Array as="points">
              <mxPoint x="379" y="240" />
              <mxPoint x="460" y="240" />
              <mxPoint x="460" y="114" />
            </Array>
          </mxGeometry>
        </mxCell>
        <mxCell id="GF9OS27kTet_1WbwtDLy-39" value="Not to recycle" style="rounded=0;whiteSpace=wrap;html=1;fontSize=20;strokeWidth=3;" vertex="1" parent="WIyWlLk6GJQsqaUBKTNV-1">
          <mxGeometry x="299" y="213.38" width="80" height="50" as="geometry" />
        </mxCell>
        <mxCell id="GF9OS27kTet_1WbwtDLy-43" style="edgeStyle=orthogonalEdgeStyle;rounded=0;orthogonalLoop=1;jettySize=auto;html=1;entryX=0.11;entryY=0.89;entryDx=0;entryDy=0;entryPerimeter=0;" edge="1" parent="WIyWlLk6GJQsqaUBKTNV-1" source="GF9OS27kTet_1WbwtDLy-23" target="GF9OS27kTet_1WbwtDLy-31">
          <mxGeometry relative="1" as="geometry" />
        </mxCell>
      </root>
    </mxGraphModel>
  </diagram>
</mxfile>
